<svg xmlns="http://www.w3.org/2000/svg" width="32" height="32" viewBox="0 0 32 32" fill="none">
    <path
        d="M3 3.00939C3 1.89964 3.89963 1 5.00939 1H26.9906C28.1004 1 29 1.89963 29 3.00939V17.6686C29 24.0628 23.9468 26.9226 19.2305 29.936C17.2607 31.1945 14.7393 31.1945 12.7695 29.936C8.0532 26.9226 3 24.0628 3 17.6686V3.00939Z"
        fill="#526ED3"
    />

    <path
        fill-rule="evenodd"
        clip-rule="evenodd"
        d="M12.3432 9.46411L16 12.6392L19.6568 9.46411C19.9804 9.18321 20.2062 8.80669 20.3016 8.389L21.1257 4.78245C21.2547 4.21778 21.5293 3.6967 21.922 3.27098L24.0171 1H25.7859L22.8775 4.15248C22.6386 4.41148 22.4715 4.7285 22.393 5.07204L21.569 8.67858C21.4121 9.36514 21.0409 9.98402 20.5091 10.4457L16.8231 13.6462L17.3857 13.7966C17.619 13.859 17.8448 13.9466 18.0591 14.058L21.7095 15.9552C22.6394 16.4385 23.2865 17.3325 23.455 18.3668L23.9739 21.5512C24.057 22.061 24.3322 22.5195 24.743 22.8326L26.6166 24.2605C26.3397 24.5935 26.0442 24.9132 25.7331 25.2217L23.955 23.8666C23.2798 23.3519 22.8274 22.5982 22.6908 21.7602L22.1719 18.5759C22.0694 17.9466 21.6757 17.4027 21.11 17.1087L17.4596 15.2115C17.3292 15.1437 17.1918 15.0904 17.0499 15.0525L16 14.7718L14.9502 15.0525C14.8082 15.0904 14.6708 15.1437 14.5405 15.2115L10.89 17.1087C10.3243 17.4027 9.93064 17.9466 9.82809 18.5759L9.30919 21.7602C9.17264 22.5982 8.72024 23.3519 8.04501 23.8666L6.26691 25.2217C5.95583 24.9132 5.66032 24.5935 5.38342 24.2605L7.257 22.8326C7.66781 22.5195 7.94304 22.061 8.02611 21.5512L8.54502 18.3668C8.71357 17.3325 9.36065 16.4385 10.2905 15.9552L13.941 14.058C14.1552 13.9466 14.3811 13.859 14.6144 13.7966L15.177 13.6462L11.4909 10.4457C10.9591 9.98402 10.588 9.36514 10.4311 8.67858L9.60699 5.07204C9.52849 4.7285 9.36147 4.41148 9.12252 4.15248L6.21417 1H7.9829L10.078 3.27098C10.4708 3.6967 10.7453 4.21778 10.8743 4.78245L11.6984 8.389C11.7939 8.80669 12.0197 9.18321 12.3432 9.46411ZM12.4702 29.7451C12.3257 29.6532 12.1811 29.5613 12.0363 29.4695C11.8121 29.3271 11.5878 29.1847 11.3639 29.0418L12.305 27.0272C12.4908 26.6296 12.5419 26.1823 12.4508 25.753L11.6183 21.8321C11.4177 20.887 11.6387 19.9014 12.2238 19.1325L14.9827 15.5066L16 16.2806L17.0173 15.5066L19.7763 19.1325C20.3613 19.9014 20.5824 20.887 20.3817 21.8321L19.5492 25.753C19.4581 26.1823 19.5093 26.6296 19.695 27.0272L20.6361 29.0418C20.4122 29.1847 20.1879 29.3271 19.9637 29.4695C19.819 29.5614 19.6743 29.6532 19.5298 29.7451L18.5172 27.5774C18.2119 26.9239 18.1278 26.1886 18.2776 25.483L19.11 21.5621C19.2321 20.9871 19.0976 20.3875 18.7417 19.9197L16 16.3165L13.2583 19.9197C12.9024 20.3875 12.7679 20.9871 12.89 21.5621L13.7224 25.483C13.8723 26.1886 13.7882 26.9239 13.4828 27.5774L12.4702 29.7451ZM15.8927 13.6236L16 13.5L16.1073 13.6236L16 14.0249L15.8927 13.6236Z"
        fill="#768FEA"
    />

    <path
        fill-rule="evenodd"
        clip-rule="evenodd"
        d="M16.1875 6.67784C16.1797 6.57745 16.0959 6.5 15.9952 6.5C15.8945 6.5 15.8108 6.57745 15.8029 6.67784L15.5492 9.91584C14.9758 10.1033 14.5616 10.6427 14.5616 11.2787C14.5616 11.9199 14.9824 12.4627 15.563 12.6461C15.5417 12.6776 15.5232 12.7125 15.508 12.7505C15.3283 13.2008 15.2112 13.6736 15.1601 14.1556L14.5084 20.3004C14.4689 20.6731 14.5703 21.0471 14.7927 21.3487C15.3922 22.1619 16.6079 22.1619 17.2074 21.3487C17.4298 21.0471 17.5312 20.6731 17.4917 20.3004L16.84 14.1556C16.7888 13.6736 16.6718 13.2008 16.4921 12.7505C16.4765 12.7114 16.4574 12.6757 16.4354 12.6435C17.0118 12.4577 17.4288 11.9169 17.4288 11.2787C17.4288 10.6427 17.0146 10.1034 16.4412 9.91587L16.1875 6.67784ZM13.7762 13.4728C13.8633 13.4411 13.9153 13.357 13.9126 13.2634C13.9101 13.1752 13.8576 13.0947 13.7771 13.0561C11.355 11.894 8.82197 10.9594 6.44159 10.5135C5.91058 10.414 5.35223 10.8758 5.33209 11.4387C5.20561 14.9769 11.9172 14.1494 13.7762 13.4728ZM18.2232 13.4728C18.1361 13.4411 18.084 13.357 18.0867 13.2634C18.0893 13.1752 18.1417 13.0947 18.2222 13.0561C20.6443 11.894 23.1774 10.9594 25.5578 10.5135C26.0888 10.414 26.6471 10.8758 26.6673 11.4387C26.7937 14.9769 20.0821 14.1494 18.2232 13.4728Z"
        fill="white"
    />
</svg>
